<?xml version="1.0" standalone="no"?>
<svg viewBox="0 0 200 200" xmlns="http://www.w3.org/2000/svg">
  <path fill="#9EF0F0" d="M22.3,-47.2C28.6,-35,33.1,-28.4,33.8,-21.4C34.5,-14.5,31.4,-7.2,32.6,0.7C33.7,8.6,39.3,17.3,37.1,21.6C34.9,25.9,24.9,25.8,17.4,35.3C9.9,44.7,5,63.5,-0.4,64.2C-5.7,64.8,-11.4,47.2,-13.5,34.7C-15.7,22.2,-14.2,14.8,-23.4,9.9C-32.7,4.9,-52.5,2.5,-63.7,-6.5C-74.9,-15.4,-77.4,-30.8,-67.1,-33.9C-56.9,-37,-33.8,-27.8,-20.5,-35.9C-7.2,-44.1,-3.6,-69.5,2.2,-73.4C8,-77.2,16,-59.5,22.3,-47.2Z" transform="translate(100 100)" />
</svg>
